/* XPM */
static char *result[] = {
/* columns rows colors chars-per-pixel */
"40 40 7 1 ",
"  c black",
". c #693A1B",
"X c #A95526",
"o c #946D40",
"O c #C2854E",
"+ c #FFD58A",
"@ c #F5D79E",
/* pixels */
"@@@@@@@@@@@@@@@@@@@@@@@@@@@@@@@@@@@@@@@@",
"OOOOOOOOOOOOOOOOOOOOOOOOOOOOOOOOOOOOOOOO",
"@@@@@@@@@@@@@@@@@@@@@@o@@@@@@@@@@@@@@@@@",
"@@@@@@@@@@@@@@@@@@@@@@O@@@@@@@@@@@@@@@@@",
"@@@@@@@@@@@@@@@@@@@@@@O@@@@@@@@@@@@@@@@@",
"@@@@@@@@@@@@@@@@@@@@@@O@@@@@@@@@@@@@@@@@",
"OOOOOOOOOOOOOOOOOOOOOOoOOOOOOOOOOOOOOOOO",
"@@@@@@@@@@@@@@@@@@@@@@@@@@@@@@@@@@@@@@@@",
"@@@@@@@@@@@@@@@@@@@@@@@@@@@@@@@@@@@@@@@@",
"@@@@@@@@@@@@@@@@@@@@@@@@@@@@@@@@@@@@@@@@",
"@@@@@@@@@@@@@@@@@@@@@@@@@@@@@@@@@@@@@@@@",
"OOOOOOOOOOOOOOOOOOOOOOOOOOOOOOOOOOOOOOOO",
"@@@@@@@@@@@@@o@@@@@@@@@@@@@@@@@@@@@@@@@@",
"@@@@@@@@@@@@@O@@@@@@@@@@@@@@@@@@@@@@@@@@",
"@@@@@@@@@@@@@O@@        @@@@@@@@@@@@@@@@",
"@@@@@@@@@@@@@o  O++++++O  @@@@@@@@@@@@@@",
"OOOOOOOOOOOO  O++++++++++O  OOOOOOOOOOOO",
"@@@@@@@@@@@ +O++++X++X++++O+ @@@@@@@@@@O",
"@@@@@@@@@@ +O++++X++X+X++++O+ @@@@@@@@@O",
"@@@@@@@@@@ O+++++X+X+X++++++O @@@@@@@@@O",
"@@@@@@@@@ +O+++++++X+X++++++O+ @@@@@@@@O",
"OOOOOOOOO +..++++++++++++++..+ OOOOOOOOo",
"@@o@@@@@@@ O.O++++++++++++O.O @@@@@@@@@@",
"@@O@@@@@@@ ++...++++++++...++ @@@@@@@@@@",
"@@O@@@@@@@@ ..++O..OO..O++.. @@@@@@@@@@@",
"@@O@@@@@@@@@ ....++..++.... @@@@@@@@@@@@",
"OOoOOOOOOOOOO  ..........  OOOOOOOOOOOOO",
"@@@@@@@@@@@@@@@          @@@@@@@@@@@@@@@",
"@@@@@@@@@@@@@@@@@@@@@@@@@@@@@@@@@@@@@@@@",
"@@@@@@@@@@@@@@@@@@@@@@@@@@@@@@@@@@@@@@@@",
"@@@@@@@@@@@@@@@@@@@@@@@@@@@@@@@@@@@@@@@@",
"OOOOOOOOOOOOOOOOOOOOOOOOOOOOOOOOOOOOOOOO",
"@@@@@@@@@@@@@@@@@@@@@@@@@@@@@@@@@o@@@@@@",
"@@@@@@@@@@@@@@@@@@@@@@@@@@@@@@@@@O@@@@@@",
"@@@@@@@@@@@@@@@@@@@@@@@@@@@@@@@@@O@@@@@@",
"@@@@@@@@@@@@@@@@@@@@@@@@@@@@@@@@@o@@@@@@",
"OOOOOOOOOOOOOOOOOOOOOOOOOOOOOOOOOoOOOOOO",
"@@@@@@@@@@@@@@@@@@@@@@@@@@@@@@@@@@@@@@@@",
"@@@@@@@@@@@@@@@@@@@@@@@@@@@@@@@@@@@@@@@@",
"@@@@@@@@@@@@@@@@@@@@@@@@@@@@@@@@@@@@@@@@"
};
