/* XPM */
static char *bff4730e505147d0b237a6b09dde5948TZ2O8ibGhNYPBDS0[] = {
/* columns rows colors chars-per-pixel */
"40 40 13 1 ",
"  c black",
". c #120601",
"X c #170801",
"o c #1C0C03",
"O c #230F03",
"+ c #291306",
"@ c #693A1B",
"# c #77421E",
"$ c #7A431F",
"% c #7D4520",
"& c #946D40",
"* c #C2854E",
"= c #F5D79E",
/* pixels */
"========================================",
"****************************************",
"======================&=================",
"======================*=================",
"======================*=================",
"======================*=================",
"**********************&*****************",
"========================================",
"========================================",
"========================================",
"========================================",
"****************************************",
"=============&==========================",
"=============*==========================",
"=============*== o++ o..================",
"=============&  @@@@@@@@  ==============",
"************  @%%%%$%%#%%@  ************",
"=========== @@%%%%%%%%%%%%@@ ==========*",
"========== @@%%%%%%%%%%%%%%@@ =========*",
"========== @%%%%%%%%%%%%%%%%@ =========*",
"========= @@%%%%%%%%%%%%%%%%@@ ========*",
"********* @@@%%%%%%%%%%%%%%@@@ ********&",
"==&======= @@@%%%%%%%%%%%%@@@ ==========",
"==*======= @@@@@%%%%%%%%@@@@@ ==========",
"==*========X@@@@@@@@@@@@@@@@O===========",
"==*========= @@@@@@@@@@@@@@ ============",
"**&**********  @@@@@@@@@@  *************",
"===============          ===============",
"========================================",
"========================================",
"========================================",
"****************************************",
"=================================&======",
"=================================*======",
"=================================*======",
"=================================&======",
"*********************************&******",
"========================================",
"========================================",
"========================================"
};
