/* XPM */
static char *cb61b430ec974c1bead661821968cff8FREUP2MQ31qI6q3F[] = {
/* columns rows colors chars-per-pixel */
"40 40 12 1 ",
"  c black",
". c #3D120E",
"X c #946D40",
"o c #FFC90E",
"O c #C2854E",
"+ c #C28553",
"@ c #E607F8",
"# c #67A4E0",
"$ c #F5D79E",
"% c #F4D6A0",
"& c #F3D4A4",
"* c #F1D1AA",
/* pixels */
"$$$$$$$$$$$$$$$$$$$$$$$$$$$$$$$$$$$$$$$$",
"OOOOOOOOOOOOOOOOOOOOOOOOOOOOOOOOOOOOOOOO",
"$$$$$$$$$$$$$$$$$$$$$$X$$$$$$$$$$$$$$$$$",
"$$$$$$$$$$$$$$$$$$$$$$O$$$$$$$$$$$$$$$$$",
"$$$$$$$$$$$$$$$$$$$$$$O$$$$$$$$$$$$$$$$$",
"$$$$$$$$$$$$$$$$$$$$$$O$$$$$%%$$$$$$$$$$",
"OOOOOOOOOOOOOOO.........OOO+++OOOOOOOOOO",
"$$$$$$$$$$$$$$...........$$$$$$$$$$$$$$$",
"$$$$$$$$$$$$$.............$$$$$$$$$$$$$$",
"$$$$$$$$$$$$...............$$$$$$$$$$$$$",
"$$$$$$$$$$$$................$$$$$$$$$$$$",
"OOOOOOOOOOO....o....o.......OOOOOOOOOOOO",
"$$$$$$$$$$$...ooo..oo..o....$$$$$$$$$$$$",
"$$$$$$$$$$$...ooooooooooo....$$$$$$$$$$$",
"$$$$$$$$$$....ooooooooooo.o..$$$$$$$$$$$",
"$$$$$$$$$$....o  oooo  oooo..$$$$$$$$$$$",
"OOOOOOOOOO...ooooooooooooo...OOOOOOOOOOO",
"$$$$$$$$$$...ooooo  ooooo....$$$$$$$$$$O",
"$$$$$$$$$$....ooooooooo......$$$$$$$$$$O",
"$$$$$$$$$$......oooooo.......$$$$$$$$$$O",
"$$$$$$$$$$$.$......oo.....$.$$$$$$$$$$$O",
"OOOOOOOOOOOOOOOOOO.oo.OOO.OOOOOOOOOOOOOX",
"$$X$$$$$$$$$$$$$$.......$$$$$$$$$$$$$$$$",
"$$O$$$$$$$$$$$...#....#...$$$$$$$$$$$$$$",
"$$O$$$$$$$$$$.#.########.#.$$$$$$$$$$$$$",
"$$O$$$$$$$$$.#.@@@@@@@@@..#.$$$$$$$$$$$$",
"OOXOOOOOOOOO.#.##########.#.OOOOOOOOOOOO",
"$$$$$$$$$$$$...@@@@@@@@@@...$$$$$$$$$$$$",
"$$$$$$$$$$$$.o.##########.o.$$$$$$$$$$$$",
"$$$$$$$$$$$$...##########...$$$$$$$$$$$$",
"$$$$$$$$$$$$$$.###...####.$$$$$$$$$$$$$$",
"OOOOOOOOOOOOOO.###.+.####.OOOOOOOOOOOOOO",
"$$$$$$$$$$$$$$.....%......$$$$$$$X$$$$$$",
"$$$$$$$$$$$$$$$$...&....$$$$$$$$$O$$$$$$",
"$$$$$$$$$$$$$$$....*.....$$$%%$$$O$$$$$$",
"$$$$$$$$$$$$$$$$$$$$$$$$$$$$$$$$$X$$$$$$",
"OOOOOOOOOOOOOOOOOOOOOOOOOOOOOOOOOXOOOOOO",
"$$$$$$$$$$$$$$$$$$$$$$$$$$$$$$$$$$$$$$$$",
"$$$$$$$$$$$$$$$$$$$$$$$$$$$$$$$$$$$$$$$$",
"$$$$$$$$$$$$$$$$$$$$$$$$$$$$$$$$$$$$$$$$"
};
