/* XPM */
static char *result[] = {
/* columns rows colors chars-per-pixel */
"40 40 11 1 ",
"  c black",
". c #693A1B",
"X c #946D40",
"o c #C2854E",
"O c #C28550",
"+ c #FFD58A",
"@ c #F5D79E",
"# c #F5D79F",
"$ c #F4D6A0",
"% c #F4D6A1",
"& c #F3D4A4",
/* pixels */
"@@@@@@@@@@@@@@@@@@@@@@@@@@@@@@@@@@@@@@@@",
"oooooooooooooooooooooooooooooooooooooooo",
"@@@@@@@@@@@@@@@@@@@@@@X@@@@@@@@@@@@@@@@@",
"@@@@@@@@@@@@@@@@@@@@@@o@@@@@@@@@@@@@@@@@",
"@@@@@@@@@@@@@@@@@@@@@@o@@@@@@@@@@@@@@@@@",
"@@@@@@@@@@@@@@@@@@@@@@o@@@@@@@@@@@@@@@@@",
"ooooooooooooooooooooooXooooooooooooooooo",
"@@@@@@@@@@@@@@@@@@@@@@@@@@@@@@@@@@@@@@@@",
"@@@@@@@@@@@@@@@@@@@@@@@@@@@@@@@@@@@@@@@@",
"@@@@@@@@@@@@@@@@@@@@@@@@@@@@@@@@@@@@@@@@",
"@@@@@@@@@@@@@@@@@@@@@@@@@@@@@@@@@@@@@@@@",
"oooooooooooooooooooooooooooooooooooooooo",
"@@@@@@@@@@@@@X@@@@@@@@@@@@@@@@@@@@@@@@@@",
"@@@@@@@@@@@@@o@@@@@@@@@@@@@@@@@@@@@@@@@@",
"@@@@@@@@@@@@@o@@@@@   @@@@@@@@@@@@@@@@@@",
"@@@@@@@@@@@@@X@@@@ o++  @@@@@@@@@@@@@@@@",
"oooooooooooooXooo  .o.+o ooooooooooooooo",
"@@@@@@@@@@@@@@@@ .+++o.+. @@@@@@@@@@@@@o",
"@@@@@@@@@@@@@@  o++++++.++ @@@@@@@@@@@@o",
"@@@@@@@@@@@@  o ++++++o+..  @@@@@@@@@@@o",
"@@@@@@@@@@@ oo ++++oo.... oo @@@@@@@@@@o",
"oooooooooo o.o +......... ooo oooooooooX",
"@@X@@@@@@@ ooo ......    o+oo @@@@@@@@@@",
"@@o@@@@@@@ +oo       .oo+ooo+ @@@@@@@@@@",
"@@o@@@@@@@@ ++ooooooo+.ooo++ @@@@@@@@@@@",
"@@o@@@@@@@@@  +++oooo.o+++  @@@@@@@@@@@@",
"ooXoooooooOOoo   ++++++   Oooooooooooooo",
"@@@@@@@@@@###@@@@      &%$##@@@@@@@@@@@@",
"@@@@@@@@@@@@@@@@@@@@@@@@@@@@@@@@@@@@@@@@",
"@@@@@@@@@@@@@@@@@@@@@@@@@@@@@@@@@@@@@@@@",
"@@@@@@@@@@@@@@@@@@@@@@@@@@@@@@@@@@@@@@@@",
"oooooooooooooooooooooooooooooooooooooooo",
"@@@@@@@@@@@@@@@@@@@@@@@@@@@@@@@@@X@@@@@@",
"@@@@@@@@@@@@@@@@@@@@@@@@@@@@@@@@@o@@@@@@",
"@@@@@@@@@@@@@@@@@@@@@@@@@@@@@@@@@o@@@@@@",
"@@@@@@@@@@@@@@@@@@@@@@@@@@@@@@@@@X@@@@@@",
"oooooooooooooooooooooooooooooooooXoooooo",
"@@@@@@@@@@@@@@@@@@@@@@@@@@@@@@@@@@@@@@@@",
"@@@@@@@@@@@@@@@@@@@@@@@@@@@@@@@@@@@@@@@@",
"@@@@@@@@@@@@@@@@@@@@@@@@@@@@@@@@@@@@@@@@"
};
