/* XPM */
static char *b71dde74b06e4c4f811c3771feb912e2ZiUiSuvoCaq7Pl28[] = {
/* columns rows colors chars-per-pixel */
"40 40 185 2 ",
"   c #0D0500",
".  c #00030B",
"X  c #0E0D0B",
"o  c #140B02",
"O  c #180F04",
"+  c #120E09",
"@  c #1E1307",
"#  c #16120D",
"$  c #1B150D",
"%  c #1F180F",
"&  c #070C19",
"*  c #080E1D",
"=  c #060915",
"-  c #0C121E",
";  c #1D1710",
":  c #1C1A1A",
">  c #241606",
",  c #271806",
"<  c #2B1A06",
"1  c #20170F",
"2  c #21180F",
"3  c #2D1C0A",
"4  c #361C03",
"5  c #321F0A",
"6  c #241B10",
"7  c #291E12",
"8  c #36230D",
"9  c #3B250C",
"0  c #372A0E",
"q  c #3F280F",
"w  c #3E2203",
"e  c #2D2113",
"r  c #2C251D",
"t  c #342515",
"y  c #392715",
"u  c #372816",
"i  c #3A2917",
"p  c #3D2C18",
"a  c #0E1524",
"s  c #151A2B",
"d  c #191D29",
"f  c #131C35",
"g  c #1E212C",
"h  c #1F2536",
"j  c #1B243E",
"k  c #2D2B2C",
"l  c #322E29",
"z  c #342D22",
"x  c #34302F",
"c  c #3B342A",
"v  c #262730",
"b  c #232835",
"n  c #292B35",
"m  c #2C2E38",
"M  c #242B3D",
"N  c #302E31",
"B  c #2C313E",
"V  c #3C3730",
"C  c #32343F",
"Z  c #393837",
"A  c #452A0C",
"S  c #4B2B08",
"D  c #422401",
"F  c #46310B",
"G  c #533600",
"H  c #442D15",
"J  c #492F12",
"K  c #422E19",
"L  c #4B3115",
"P  c #46311B",
"I  c #4C351C",
"U  c #4F381E",
"Y  c #513415",
"T  c #50371C",
"R  c #533A1E",
"E  c #533A1F",
"W  c #523A1F",
"Q  c #51391E",
"!  c #553B1F",
"~  c #563B1F",
"^  c #563C1F",
"/  c #533A1E",
"(  c #583D1F",
")  c #4E3E2F",
"_  c #563C20",
"`  c #563C21",
"'  c #593E20",
"]  c #5A3E21",
"[  c #483D32",
"{  c #443D3A",
"}  c #5F4307",
"|  c #5D4618",
" . c #63450D",
".. c #684808",
"X. c #734C00",
"o. c #754F09",
"O. c #6C4F18",
"+. c #6B4D19",
"@. c #6A501F",
"#. c #76581B",
"$. c #765413",
"%. c #5B4226",
"&. c #5D4122",
"*. c #5D4B2B",
"=. c #494035",
"-. c #4A433B",
";. c #594631",
":. c #5E4831",
">. c #5A493C",
",. c #5D503A",
"<. c #624525",
"1. c #60462A",
"2. c #624A2E",
"3. c #735A28",
"4. c #624C34",
"5. c #634F39",
"6. c #65533F",
"7. c #7A6439",
"8. c #2C3249",
"9. c #2E3342",
"0. c #323544",
"q. c #3A3C41",
"w. c #343A4B",
"e. c #3A3F4A",
"r. c #383F50",
"t. c #43454D",
"y. c #4A4644",
"u. c #584E44",
"i. c #544F4C",
"p. c #534A43",
"a. c #56514F",
"s. c #59514C",
"d. c #444756",
"f. c #444953",
"g. c #4F4F56",
"h. c #434958",
"j. c #514E52",
"k. c #4B525E",
"l. c #515157",
"z. c #595654",
"x. c #59555A",
"c. c #5B595F",
"v. c #6B5743",
"b. c #6B5A44",
"n. c #605449",
"m. c #645848",
"M. c #6B5949",
"N. c #745D43",
"B. c #645B52",
"V. c #625C59",
"C. c #786547",
"Z. c #70604E",
"A. c #7D6A46",
"S. c #6C6457",
"D. c #756656",
"F. c #7E6D5F",
"G. c #7B6A58",
"H. c #575961",
"J. c #575D68",
"K. c #5C5E66",
"L. c #535C76",
"P. c #625F61",
"I. c #5F616D",
"U. c #666363",
"Y. c #63656C",
"T. c #6E6B6C",
"R. c #6E6964",
"E. c #736B64",
"W. c #7E7360",
"Q. c #666771",
"!. c #686C75",
"~. c #686F7C",
"^. c #74757C",
"/. c #727273",
"(. c #80601F",
"). c #86796E",
"_. c #817972",
"`. c #898076",
"'. c #8D857F",
"]. c #6C7588",
"[. c #777B85",
"{. c #96979F",
"}. c #9094A1",
"|. c #B4AEAC",
" X c #B6B3B4",
/* pixels */
"% 6 % # $ $ % # # $ # % % # $ # 6 1 # $ 6 % # $ # $ # # $ $ 6 % # $ $ # $ % 1 6 ",
"X t I K p i i p p p P 7 e K p K P K p p K p K K i p p p p p P K p p p p K 7 7 I ",
"t I ^ Q Q I Q Q Q ^ ] 7 t <.Q Q Q Q Q Q Q Q ` Q I ~ ~ ~ Q I Q Q Q Q ~ ~ _ t 7 ] ",
"] ~ I I I I ~ Q I Q Q 2 7 I Q I I I Q ~ I Q Q I Q Q Q Q T I I I I I Q Q ] e 1 Q ",
"K P P P P P I I K I I 7 + 7 I I I P I I K P P I I P P P P P P I I P P K Q t 2 P ",
"% % % % % $ % % % 6 % # # $ % 2 6 2 $ % % % $ $ % % % % $ $ % % % % 2 $ 6 7 % % ",
"i 6 7 K K i i i i p i p p i t # t I i t i i p i t i p i i i K i p t 6 i i K P i ",
"~ 7 t ] ~ I Q ~ Q Q Q Q Q ^ I 2 K ] Q I Q Q ( ~ I Q I Q Q Q Q ] I 7 6 Q ~ Q Q U ",
"] 2 7 Q I I Q Q Q Q I I I _ I 6 i Q I Q I Q Q Q I I I T Q I I ^ K % % I ^ Q I T ",
"I 2 e I K I I P P P P 9 K I I % i I I I K P P P P P P I I K I P Q i $ K I P I I ",
"2 2 7 6 $ % #     o 2 c % % % $ # 6 6 % % % % $ $ % % % % 6 6 7 2 $ $ $ % $ $ % ",
"# i K i K t P `.G.P [ l.r   p p K i i i i i i i i p i i K K p p p K p K i i i y ",
"# K _ Q Q A M.}.{.|. X[.U.t S w A J L I T Y I I ^ ] Q Q Q T I Q Q Q ~ ~ I Q ~ I ",
"# K ] Q I A D.w.* j h.I.J.T.).).D.N.2.I %.4.%.J A J I I 9 %.%.J I I Q I I Q Q I ",
"# K Q P I L ` B.a.N k n q.Y.].~.!.Q.^.'.T.H.V.n.Z.5.' L 6.U.S.:.J H P P I P K P ",
"# $ 6 6 % ; + O 2 z =.-.V l k x q.B f.B w.8.8.r.t.0.g.P.K.. 0.T.i.c O % % $ $ % ",
"P y i K i i i p H 3   < 9 3 8 y K 5.4.-.M h 0.B d b B g d g B s e.B.o i p t i K ",
"~ I I Q I ~ ~ ~ ~ I 2 P ] Q Q Q I A D D.k.w.C - s C m v n B n a x.;.@ I _ Q I Q ",
"I U Q I I Q ~ I I I 6 p Q I Q Q I I I :.6.R./.u.j.s f j f & = 9.F.9 # I ~ Q I I ",
"P I I I P K P P I P % t I P P P P I I H 4 y.V.<._.l.,.P l l.t.x.1.5 % I P P I I ",
"% % % 2 $ % % % % 6 $ % $ $ ; % $ 2 6 $ @ Z c.s.^.z...o.(.W.x r O 6 2 % $ # 2 7 ",
"i P 7 $ i i i i p K p p p t % i K K i i t I i.Y.E.z.F O. .A.) 4 7 2 P y p K t # ",
"Q ] P t Q ~ Q Q Q Q Q U ] I 7 I ~ ~ Q I ` ~ , 7 Y >.,. . .3.G.T e 2 ] I Q &.P % ",
"I I Q T Q Q I I I I I I ^ K 2 I I T Q Q Q ^ t 2 A v.m.G @. .C.4., 7 _ Q I ^ P 6 ",
"K P P I I P P P K P P I I t $ I I P I I P I 7 2 H ` p.| O.} 7.D.> 7 I I I I t # ",
"6 % % 2 % % 6 2 $ $ $ $ % % # $ $ % % % $ $ % % $ o f.*...+.#.Z.: O % $ $ % % $ ",
"p P 7 % p y p K K p i i i i p i p p i i i K 6 $ P 8 l y. .$.X.7.s.5 K t i i i p ",
"Q ] t 7 _ Q I Q ~ Q Q Q I Q ] T Q Q I ~ Q _ p u ] ^ > { b.0 7 v.v.L Q I Q Q Q U ",
"Q Q t 7 Q ~ I I I I I I Q I P I I I I Q I I Q ~ I _ 7 < 4.d.L.>.J Q I Q I I Q U ",
"P I 7 2 I P P P I I K I ~ p % P I I I P K P I P K I 2 7 L 4.4.q H P I I I K P I ",
"% 2 % % 6 % $ $ 2 7 % % $ $ $ 2 % $ $ $ % % % % % $ # $ % O o $ $ % 6 % 2 % $ % ",
"K # 2 K p p K K t % i K p p y X e p i i % u K i K i K K i y i i p p i p % 7 K K ",
"` t p ^ I I Q ] p # I ^ ^ ^ T t P ~ ~ I 2 K ] ~ T Q _ ` I I ~ Q Q ~ Q _ 2 t &.Q ",
"I ~ _ Q I I I ~ p $ P I I Q Q _ Q Q ~ I % y ~ Q I I T I I I Q I I Q ~ Q 2 t ] I ",
"K I I P I I I I u $ P I P K P P I I P K % t I I I I K P I I I K I I P I 2 e I I ",
"6 % # % 6 % 6 6 # $ 6 % % 2 $ % 6 2 $ % $ $ $ % 6 % $ % 7 7 % # $ % $ % $ # 1 7 ",
"p i i K p i i i K p p P 7 % p y i p i K i K i i p i K e + # i P i i K i i K t $ ",
"Q I Q ~ I ~ I ~ ] I Q &.t 7 ] I Q Q Q Q I Q Q I ~ ^ _ t % i I ^ Q I Q ^ Q ~ K # ",
"I I I P P I I K p I I Q t 7 Q I I I I P I I I I T I Q e e &.I I I I P I I T i # ",
"I T I P I I ~ 7 % ~ P Q e ; I I P I Q I T I I I I P ~ t 1 I Q I I T I P P ^ P # "
};
