/* XPM */
static char *_787d5bc03c44a80dd20dbb5b9f33192M32d3YP8svesO8XJ[] = {
/* columns rows colors chars-per-pixel */
"40 40 233 2 ",
"   c #000000",
".  c #0C0C09",
"X  c #150C02",
"o  c #150708",
"O  c #0E100D",
"+  c #1B1204",
"@  c #16130D",
"#  c #1B150D",
"$  c #1B150A",
"%  c #091318",
"&  c #161812",
"*  c #20160F",
"=  c #21190F",
"-  c #281809",
";  c #361A06",
":  c #241B10",
">  c #2A1E12",
",  c #241B1B",
"<  c #391710",
"1  c #3C240A",
"2  c #3C290C",
"3  c #3D2404",
"4  c #2E2214",
"5  c #2F2718",
"6  c #332515",
"7  c #392615",
"8  c #3A2916",
"9  c #3D2C18",
"0  c #372817",
"q  c #3A301C",
"w  c #060E27",
"e  c #0C1120",
"r  c #0A1433",
"t  c #251D24",
"y  c #1E232D",
"u  c #272426",
"i  c #3A2B2A",
"p  c #382934",
"a  c #282E3D",
"s  c #441F03",
"d  c #422B0B",
"f  c #462705",
"g  c #582703",
"h  c #4D310D",
"j  c #432E14",
"k  c #422E19",
"l  c #472B17",
"z  c #4C3313",
"x  c #46321B",
"c  c #4C351C",
"v  c #4E381E",
"b  c #443017",
"n  c #52371D",
"m  c #53391E",
"M  c #583517",
"N  c #59320F",
"B  c #6D3C1B",
"V  c #6A3815",
"C  c #753C19",
"Z  c #7C3606",
"A  c #483424",
"S  c #563C20",
"D  c #5A3E20",
"F  c #453537",
"G  c #4A332C",
"H  c #7B421D",
"J  c #5D4022",
"K  c #6F4422",
"L  c #08174F",
"P  c #1E2648",
"I  c #192E5B",
"U  c #373346",
"Y  c #293341",
"T  c #071A61",
"R  c #0F2978",
"E  c #132C76",
"W  c #3D3F67",
"Q  c #493B47",
"!  c #443E51",
"~  c #364568",
"^  c #444458",
"/  c #53485B",
"(  c #54454A",
")  c #785757",
"_  c #765552",
"`  c #7E615C",
"'  c #47496C",
"]  c #514B62",
"[  c #534A66",
"{  c #5B5668",
"}  c #534C73",
"|  c #574B79",
" . c #4B5575",
".. c #55597E",
"X. c #464D7E",
"o. c #615C75",
"O. c #635364",
"+. c #5B637E",
"@. c #786A7A",
"#. c #6F6570",
"$. c #823E19",
"%. c #863F0A",
"&. c #88441B",
"*. c #934B1C",
"=. c #984918",
"-. c #964B14",
";. c #A84A08",
":. c #B9570D",
">. c #A4521D",
",. c #AB541F",
"<. c #BB5D1D",
"1. c #B45D12",
"2. c #AB4F12",
"3. c #B96213",
"4. c #834521",
"5. c #955333",
"6. c #97512C",
"7. c #AC5721",
"8. c #AB5A24",
"9. c #BA5D24",
"0. c #B45C23",
"q. c #AA5C31",
"w. c #BD6326",
"e. c #B96527",
"r. c #AB6137",
"t. c #B46333",
"y. c #CD5E0D",
"u. c #D5630C",
"i. c #C9641A",
"p. c #D76C19",
"a. c #D37415",
"s. c #CC6B24",
"d. c #C46828",
"f. c #D56D21",
"g. c #D16F2D",
"h. c #CC712D",
"j. c #D9752C",
"k. c #CA7236",
"l. c #DD7C33",
"z. c #D47734",
"x. c #E37A29",
"c. c #E47E33",
"v. c #E87C30",
"b. c #805855",
"n. c #92634D",
"m. c #BF7350",
"M. c #857277",
"N. c #816A72",
"B. c #D97F44",
"V. c #F18C3E",
"C. c #EC822C",
"Z. c #D98A59",
"A. c #D19772",
"S. c #F6A665",
"D. c #0A2A91",
"F. c #142F94",
"G. c #1A3AA3",
"H. c #3B5493",
"J. c #1F41AF",
"K. c #2343A6",
"L. c #585A85",
"P. c #4B5E96",
"I. c #445A84",
"U. c #5C648C",
"Y. c #5A6588",
"T. c #596897",
"R. c #556993",
"E. c #626D95",
"W. c #626D9A",
"Q. c #66739C",
"!. c #68739B",
"~. c #76748D",
"^. c #586FA5",
"/. c #5978AA",
"(. c #4766B9",
"). c #656EA7",
"_. c #6A7BA5",
"`. c #647EAB",
"'. c #6B7DAA",
"]. c #6476A5",
"[. c #657EB3",
"{. c #717BA6",
"}. c #7A819B",
"|. c #6D83AC",
" X c #6684A4",
".X c #6D82B4",
"XX c #6787B8",
"oX c #7087B0",
"OX c #758CBB",
"+X c #7592BB",
"@X c #7290B5",
"#X c #7B8DA4",
"$X c #638AC3",
"%X c #688FC6",
"&X c #748FC5",
"*X c #7293C4",
"=X c #7A9AC4",
"-X c #7C9DC9",
";X c #7799C8",
":X c #6B9AD4",
">X c #7A9BD5",
",X c #7EA1CC",
"<X c #7BA5D5",
"1X c #7AA9DB",
"2X c #6EA4DF",
"3X c #78A9E3",
"4X c #6FA4E4",
"5X c #958999",
"6X c #8692B4",
"7X c #9292AD",
"8X c #AFACB3",
"9X c #A99593",
"0X c #D8AB92",
"qX c #DCA888",
"wX c #829DC2",
"eX c #819CD0",
"rX c #82A5CD",
"tX c #82AAD5",
"yX c #83ADDC",
"uX c #85A9D7",
"iX c #86B1DD",
"pX c #88B1DF",
"aX c #90B8DE",
"sX c #82AAE3",
"dX c #8CB9EB",
"fX c #9BB7E7",
"gX c #AAAFD3",
"hX c #B5C0DD",
"jX c #8AC1F1",
"kX c #BCC9E6",
"lX c #CBC1C8",
"zX c #F2DCCE",
"xX c #FEFDFF",
/* pixels */
"# : # $ # # # @ @ # @ # # @ # @ = X , } i X @ # @ # @ @ # # : # @ # # @ # # * : ",
". 6 c k 9 8 8 9 9 9 x > 4 k 9 j j F U.sXOXi 2 k 8 9 9 9 9 9 x k 9 9 9 9 k > > c ",
"6 c m m m c m m m m D : 6 J m h ( >X,XQ.sXo.h m c m m m m c m m m m m m S 6 > D ",
"D m c c c c m m c m m = : c m f G eX=XoX;XF f c c m m m n c c c c c m m D 4 * m ",
"k x x x x x c c k c c > X - 3 k ; U XXyX^ ; l 3 d b x x x x x c c x x k m 6 = x ",
"# # # # # # # # # : # # @ p ! !.`.% E 6Xu T.Q.! ^ , + # # # # # # # = # : : # # ",
"8 : > k k 8 8 8 8 9 7 7 } >X>X[..XU.XX>X%X3X3XsX.Xi 1 8 8 8 k 8 k 6 : 8 8 k x 8 ",
"m > 6 D m c m m m m m z ( +.~ p *.0._ ] @./ O. .F j c m m m m D c > : m m m m v ",
"D = > m c c m m m m c x 2 f g >.f.C.-.-.i.%.<.Z g N 9 c m c c m k # # c m m c n ",
"c = 4 c k c c x x x x z C 0.j.d.d.k.z.l.z.z.x.B.m.m.H k c k c x m 8 # k c x c c ",
"= = : : # # # # # @ > >.c.V.w.;.i.=.>.h.z.c.k.U I y &.f O : : : = # # # # # # # ",
"$ 8 k 8 k 8 8 9 k 6 7 *.<.2.g 9XS.:.e.=.8.d.z.V ; f C n 9 k 9 9 9 k 9 k 8 8 8 7 ",
"@ k S m m m m m m S c h 1 < [ dXlXs.u.s.e.;.;.i.i.>.n x m m m m m m m m c m m c ",
"@ k D m c m c c c m z G U R.*XOX$X5XZ.h.d.Z.@.] M j c c c c m m m c m c c m m c ",
"@ k m x c c x x c d F T.W..XQ.Q.+X$XkXzXo E.fXH.L.Q z c x c x x c c k x c x k x ",
"@ # : : # # # # + X ..OX|.|._.Q.Q.Q.XXhX#Xe { 6XT.L.t X # = # # # # = # # # # # ",
"x 7 8 k 8 8 8 9 1 U &XtX-XoX+X|.oXQ.;XT.xX8XU gXE.T.^ 1 6 @ 8 k k 6 = 8 9 6 8 k ",
"m c c m c m S m h { yX@XQ._.+X'.+XoX|.XX8XxX(.P o.]./ h c 8 c D D 9 = c S m c m ",
"c v m c c m m h k W.tX=XoX|.'.} E.yX'.|.|.xXT.  P ).} A z D c n m 8 # c m m c c ",
"x c c c x k j d ] >XiX+XU.'.|.L.E._.=X|.].~.=   D.H.!.Q f x x k c 8 # c x x c c ",
"# # # = # # + X U.pX+X|.Q.!.L.'.pXoX=X=X+Xu   E G.r ^ L.u X # # # : = # # @ = > ",
"8 x > # 8 8 7 ; U.yX@XQ.Q.|.,XQ.+XtX-X,XyX~ T J.r   t '.' 6 j k : * b 7 9 k 6 @ ",
"m D x 6 n m m z ( OXtX,X*X*X<X].|.rX=XrX=XK.D.r     r ).5XA M J 4 = D c m J x # ",
"c c m n n m c h A .X1XXX*X=X=X.X/.,X=XrX;XL       w D.).A.V 9 S 6 : S m c m x : ",
"k x x c c x x d F &XtX7X0XqX0XA.~.2X-X,XtXa     w G.R ~ 5.:.M x 6 : c c c c 6 @ ",
": # # = # # : + t P.5XS.x.p.p.p.i.}.3X=XuXwXe L K.R % I.n.a.>.* O # # # # # # # ",
"9 x > # 9 7 9 k 8 i 4.u.0.g.l.e.y.r.;X1X,XaX/.G.R   Y [.5.1.e.B 5 9 k 6 8 8 8 9 ",
"m D 6 : S m c m m d N 9.g.>.0.j.d.:.@.%X|.+X{.I     W 5.-.$.<.B x m m c m m m v ",
"m m 6 > m m c c c c 9 4.i._ ) u.2.;.@.[.'.U.| t   Y.] g M n C c c m c m c c m v ",
"x c > = c x x x c c k k s Y.wXM.M.M.tXyXdX_.} Y. .=X! + c x q k x x c c c k x c ",
"# = # # : # # # = > # + X  .sX3X1X1X=X+X=XE.Y.|.@XW.t X # # # # # # : # = # # # ",
"k @ = k 9 9 k k 6 # 8 2 i '.tX-X,X=XU...L.Y. XU.T./ 2 8 8 7 8 8 9 9 8 9 # : k k ",
"S 6 9 m c c m D 9 @ z z o.<X,X=X-X-X|._.U.E. X X^.Q N S c c m m S m m S = 6 J m ",
"c m S m c c c m 9 # j l W.iX,X,X<X<XsXjX'.P././.^.X.A z x x m c c m m S = 6 D c ",
"k c c x c c c c 0 # j 7 P.4X:X:X`.]._.`.U._ ) ) ` ) A 7 z c 9 k c c x c = 4 c c ",
": # @ # : # : : @ # @ < b.M.@.N.r.t.t.q.6.1.1.;.1.3.*.C *.=.d . # # # # # @ * > ",
"9 8 8 k 9 8 8 8 k 9 6 &.x.x.f.f.j.x.x.v.s.=.7.d.,.e.e.<.e.s.$.5 8 8 k 8 8 k 6 # ",
"m c m m c m c m D x n 9.v.j.l.c.l.d.8.e.h.0.w.V.9.=.*.&.>.>.C v m c m m m m k @ ",
"c c c c x c c k 9 c c B V N 7.w.7.7.g.9.w.c.,.9.*.l c > > n z c c c x c c n 8 @ ",
"c n c x c c m > # m c x & . z z l C *.H C &.M l x 9 S 4 @ c v c c n c x x m b @ "
};
