/* XPM */
static char *_427e38b7a42420981186b1281f0b5aaelglcJkvVal0ss0X[] = {
/* columns rows colors chars-per-pixel */
"40 40 192 2 ",
"   c #020000",
".  c #0B0500",
"X  c #0E0D0B",
"o  c #120200",
"O  c #190700",
"+  c #120B04",
"@  c #1B0B01",
"#  c #120E0A",
"$  c #16120D",
"%  c #1B150D",
"&  c #1F180E",
"*  c #1B1005",
"=  c #1F1710",
"-  c #1E1812",
";  c #200500",
":  c #220F00",
">  c #241403",
",  c #2A1501",
"<  c #2D1903",
"1  c #20170E",
"2  c #21190F",
"3  c #2B1C0C",
"4  c #321B03",
"5  c #3A1D01",
"6  c #311F0A",
"7  c #241B10",
"8  c #291E12",
"9  c #35210A",
"0  c #3A240C",
"q  c #3F2203",
"w  c #2D2113",
"e  c #342514",
"r  c #392715",
"t  c #372817",
"y  c #3B2917",
"u  c #3D2B18",
"i  c #3A2D20",
"p  c #42270A",
"a  c #44290D",
"s  c #4D2F0F",
"d  c #402710",
"f  c #432B13",
"g  c #422E19",
"h  c #4B2F13",
"j  c #4B3115",
"k  c #46311B",
"l  c #4C351C",
"z  c #4F381E",
"x  c #583917",
"c  c #50371D",
"v  c #53391E",
"b  c #583C1F",
"n  c #403225",
"m  c #4E3821",
"M  c #563C20",
"N  c #5A3E21",
"B  c #5D4123",
"V  c #554431",
"C  c #614423",
"Z  c #63492D",
"A  c #64513E",
"S  c #725535",
"D  c #74593B",
"F  c #75613D",
"G  c #5A5542",
"H  c #6D5842",
"J  c #6D5C49",
"K  c #785F45",
"L  c #6D6145",
"P  c #7D6346",
"I  c #766048",
"U  c #7A6A47",
"Y  c #7C6753",
"T  c #7D7051",
"R  c #82623F",
"E  c #846C4B",
"W  c #8B6E4E",
"Q  c #8C6E52",
"!  c #8E7155",
"~  c #8E755C",
"^  c #907558",
"/  c #94795F",
"(  c #9A7B5A",
")  c #937450",
"_  c #937E6A",
"`  c #947B62",
"'  c #8C8267",
"]  c #9E8166",
"[  c #99846D",
"{  c #9E8C79",
"}  c #A38463",
"|  c #A48A6D",
" . c #A98B6C",
".. c #B28666",
"X. c #A68D74",
"o. c #A79077",
"O. c #AF987D",
"+. c #AA947A",
"@. c #B0967B",
"#. c #B69B7F",
"$. c #B59778",
"%. c #DD8B76",
"&. c #DC927B",
"*. c #E68B70",
"=. c #CEA87F",
"-. c #A0948F",
";. c #B89F8A",
":. c #BDA48F",
">. c #BCA182",
",. c #B6A694",
"<. c #BAB9B9",
"1. c #E19E8E",
"2. c #C0A285",
"3. c #C6A888",
"4. c #DFA18F",
"5. c #D2AF8E",
"6. c #CBB59C",
"7. c #CEB898",
"8. c #CBB093",
"9. c #D0BB9F",
"0. c #D7B898",
"q. c #E7A592",
"w. c #E0A996",
"e. c #ECAC9A",
"r. c #EBB19E",
"t. c #C9B7A8",
"y. c #C8B5A3",
"u. c #D1BEA8",
"i. c #F9BFAA",
"p. c #F6BEB0",
"a. c #D6C0AA",
"s. c #DCC7AF",
"d. c #D7C7A8",
"f. c #D6C4B0",
"g. c #DBC8B4",
"h. c #DFD4B8",
"j. c #EAC7AC",
"k. c #FEC0AF",
"l. c #E5CDB4",
"z. c #EACFB3",
"x. c #E2CEBB",
"c. c #E8CEBC",
"v. c #E6C5B5",
"b. c #FFC7B3",
"n. c #F1CDBD",
"m. c #ECD2B5",
"M. c #E3D5BC",
"N. c #EBD4BC",
"B. c #BDBDC3",
"V. c #C4C3C7",
"C. c #C0C8CD",
"Z. c #CACCCE",
"A. c #DBD2C9",
"S. c #E2D5C3",
"D. c #EAD7C4",
"F. c #EDDAC4",
"G. c #ECD8C8",
"H. c #E7DBCB",
"J. c #F3DBC3",
"K. c #F8DEC2",
"L. c #F3D7C8",
"P. c #FDD4CD",
"I. c #F2DFCA",
"U. c #F7D8C6",
"Y. c #FEDDDB",
"T. c #FDE1C5",
"R. c #F2E2CE",
"E. c #FFECCD",
"W. c #FDE5CD",
"Q. c #EEE5DA",
"!. c #EBE4D7",
"~. c #F7E5D3",
"^. c #F6EAD5",
"/. c #F7E7D9",
"(. c #FEE2DF",
"). c #F5E8D9",
"_. c #FDEEDB",
"`. c #FCECD7",
"'. c #FFF3D6",
"]. c #FFF4DE",
"[. c #FFF8DB",
"{. c #FAEEE2",
"}. c #FDF2E3",
"|. c #FFFCE4",
" X c #FEF5EA",
".X c #FFFAED",
"XX c #F4F0E4",
"oX c #FFFDF4",
"OX c #FFFFF9",
"+X c white",
"@X c #FFFFFE",
"#X c #FFFFFE",
/* pixels */
"& 7 & $ % % & $ $ % $ & & $ % $ 7 1 $ % 7 & $ % $ % $ $ % % 7 % $ % % $ % & 1 7 ",
"X e l g u y y u u u k 8 w g u g k g u u g u g g y u u u u u k g u u u u g 8 8 k ",
"e l b v v l v v v b N 8 t C v v v v v v v v M v l b b b v l v v v v b b M e 8 N ",
"N b l k l l b v l v v 2 8 l v k l l v b l v v l v v v v c k k l l l v v N w 1 v ",
"g k k k k k l k g k l 8 # 8 l k k k k l g 3 0 l l k k k k k k l l k k g v e 2 k ",
"& & & & & % & & & 8 &       $ 7 8 2 & % . y 3   7 & & & % % & & & & 2 % 7 8 & & ",
"y 7 8 g g y y y y y > N o.D @ . y k y > H /.S.k > u u y y y g y u t 7 y y g k y ",
"b 8 e N b l v b c p } _.+X+X>.@ e N f j T.+X+X7.5 l l v v v v N k 8 7 v b v v z ",
"N 2 8 v l l v v l q j.+XL.Y.+X~ @ l f x J.OXj.U.D 9 k c v l l b g & & l b v l c ",
"l 2 w l g l k k k 0 Z ~. X&.(.R.f 0 k 4 X.+X1.k.T < k l l g k k v y % g k k k l ",
"2 2 8 7 % & % % & &   y }.oX%.OX'   8   V XXe.b.G   & & & 7 7 8 2 % % % & % % & ",
"$ y g y g y y u g y y @ l Q.n.p.u.6 e e 4 d.P.r.L > y y g g u u u g u g y y y r ",
"$ g M v v v v v v b v N   I +Xe.i.F 9 k s h.Y.w.E p v v v v v v v v b b l v b l ",
"$ g N v l v l k l v v M 3 O 9.}.*.S 9 0 p M.Y.4.U 0 v l k l v v v l v l l v v l ",
"$ u v k l l k k k k k l w   C ].P...4 < 5 d.}...r g l l k k k k l l g k k k g k ",
"$ % 7 7 & % % % & % 2 & % $   ` +XI.8.6.6.l.'.|   $ % % & 2 & % % & 2 & & % % & ",
"k r y g y y y u g t $ t k u @ K .X+X+X+X+XoX X^.K > u g e $ y g g e 2 y u t y g ",
"b l l v l b b b b l 2 k N 0 R |.+XA.-.+XoXoX+XV.:.) 0 v k y l N N u 2 l M v l v ",
"l z z l k v b l l l 7 u v < } +X+XD.;.^.I.q.L.t.S. .< l c N l c b y % k b v l k ",
"k l l l k g k k l k & t k , E +X Xx.`.D.G.v.c.}.|.D < l l k k g l y & l k k l k ",
"& & & 2 % & & & & 7 % & % # + { E.a.<.B.V.C.Z.{._ . $ % % & & % & 7 2 & % $ 2 8 ",
"y k 8 % y y y y u g u u u e + : P ( } x.f.g.,.D 6 8 g y t y u g 8 1 k r u g e $ ",
"v N k t v b v v v v v l N k 8 k < ; #.M.s.=.d   l N M l l b b B w 2 N l v B k % ",
"l l v c v v l l l k l l b g 7 f 4 #..XQ.A.S.2.f 4 v z l l v v M w 8 M v l b k 7 ",
"g k k l l k k k g k k l l t % ,  .oXI..X XOX+X0.h , k l l k k l e 8 l l l l t $ ",
"7 & & 2 & & 7 2 % % % % & &   3 }.`.N.+X.X~.D.].8.i . & % & & % % & & % % & & % ",
"u k 8 & u r y u g u y y y e O +.+X{.N. XoX{.R.oX].#.+ 1 k u u u y u g t y y r u ",
"v N t 8 M v l v b v v v k a 3.+X{..XF.N.+X+XoX Xz.J.A > N l b v v b v l v v v z ",
"v v e 8 v b l l l l l l j a l.[.|.J.m.l.O.$.l.2.D ] n 3 v l v k l v l v l l v z ",
"k l 8 2 k k k k k l g k b e 3 S | 5.{.m.o B R._ o : + e v l k g k k k l k g k l ",
"& 2 & & 7 & % % 2 8 & & % - +   o S.+XJ   ,.Q./ > t *   . & % % % & 7 & 2 & % & ",
"g $ 2 g u u g g w % y g u u 3   { +XD.^ [ m.6.:.y.u.X.Y A , t y u u y u & 8 g g ",
"M t u b l l v N u $ l b M c 0 @.+X+X X+XoX].J.H.A.!.).W.K.! a v v b v M 2 e B v ",
"l b M v l l l b u % k l l k b $.@.( s._.z.m.K.T.W P / Q ] ! j l l v b v 2 e N k ",
"g l l k k l k l t % k l k k k 6 4 < j B y m B Z j < 4 6 9 f l g k l k l 2 w l k ",
"7 & $ & 7 & 7 7 $ % 7 & & 2 % % 7 7 +     . . . & & % & 7 8 & $ % & % & % $ 1 8 ",
"u y y g u y y y g u u k 8 & u r y u y g y g y y u y g w X $ y k y y g y y g t % ",
"v l v b l b l b N l v B t 8 N l v v v v l v v l b b M t & y l b v l v b v b g $ ",
"l l l k k l l g u k l v e 8 v l l l k k l l l l c l v w w B k k l l k l l c y $ ",
"l c l k l l b 8 & b k v w = l l k l v l c l l l l k b e 1 l v l l c k k k b k $ "
};
