/* XPM */
static char *_4d7f7b773094251eaaec0da7cc316b4jGaNEemZ9iRueWpq[] = {
/* columns rows colors chars-per-pixel */
"40 40 6 1 ",
"  c #1C160F",
". c #1F170E",
"X c #261C11",
"o c #47311A",
"O c #4A341C",
"+ c #4F371D",
/* pixels */
".X..............X...X.........X........X",
".O++OoOOOO+XOOO++OOOOO++oOOOOO+OOOOOoXX+",
"++ooOO+OO+O.OO+oOOO+O+OOO++++ooOOO++O..O",
"++ooOO+OO+O.OO+oOOO+O+OOO++++ooOOO++O..O",
"oOOOOO+ooOO.XXOOOOO+oOOO+OOOOOO+OOOo+..o",
".........X......X...................XXX.",
"oXOO+oOooOOOOOo.+++oOO++oOOOOO+OooXOo++O",
"+.ooOo++++OO++OXoOOOO+++OOo++OO+XX.++OOO",
"+.ooOo++++OO++OXoOOOO+++OOo++OO+XX.++OOO",
"O.OOo+OOOOOoOO+.OOO+oOOOOOO++oOOOO.oOOO+",
".XXX......X......XX..........XXX........",
".Ooo+OO++OoO..OO+ooOOOOOO+O+++OO++O+oOOo",
".O++OOOoo++OXX+oO++O++oo++OooO++OO+OO++O",
".O++OOOoo++OXX+oO++O++oo++OooO++OO+OO++O",
".+OO++oOOOOo..OXO++oOOOOOO+OOOOO++oOOooO",
"..XX.................X..................",
"+o++OOO++o.+OOOoO++OO.ooo+OOOXO+OOXOOoo+",
"OOOOo++ooOXOOO++oOO+O.oo+OOoo+O+oo.o+OOo",
"OOOOo++ooOXOOO++oOO+O.oo+OOoo+O+oo.o+OOo",
"O+++OoOOOO.oooOOO++Oo.OOOoO++OOoOO.+o++O",
".........X.......XX.X.............X....X",
"O+XXoOOOO+OOOOXO+OOoOO..OO+ooO+O..Oo+OO.",
"O+ooO+OOOoOO++XoO++O+OXXO+Ooo++O..+OO++X",
"O+ooO+OOOoOO++XoO++O+OXXO+Ooo++O..+OO++X",
"oOOO+OOooOO+oo.+OOO+Oo..oOO++OOOXXO++oo.",
"X.....X.................................",
"O+..OoO+++OOooOO+OOOOO..+o.++O+OOO+oOooO",
"+oXXO+oOOoOOOO+oOoo+OOOOO+XOOo+o++OOO++O",
"+oXXO+oOOoOOOO+oOoo+OOOOO+XOOo+o++OOO++O",
"Oo..oOOOO+o+++XOO++OoOOOoO.OO+OoOOO+ooo+",
"....X....X........................X.....",
"O.ooOO+OO.O+OOo.OooOX+OO+O+OOoOO++oO.OO+",
"OO++OoOOO.oO+++OO++O.o++oO+OOO+OOO+O.++o",
"OO++OoOOO.oO+++OO++O.o++oO+OOO+OOO+O.++o",
"o+OOO+OOO.OOooOO+OOo.oOO+OoOO+Oo++OO.OOO",
"X...X.X...X.....X.......X....X.........X",
"Oo++OOo++OO+..OoOOO+o+ooOOO...O+oo+OoOO.",
"OOOOo+OOOo+OXX+O+OOoOOOO++oXX+oOOOo+Ooo.",
"OOOOo+OOOo+OXX+O+OOoOOOO++oXX+oOOOo+Ooo.",
"O+ooOOO..+oO..OOo++O+OOOOo+..O+O++OoO++."
};
