/* XPM */
static char *_54ac17b87164dc7d825e58b59343177DHeMLEN25OYQhAWy[] = {
/* columns rows colors chars-per-pixel */
"40 40 235 2 ",
"   c #55141A",
".  c #590E15",
"X  c #69050E",
"o  c #640B12",
"O  c #770B13",
"+  c #6A171A",
"@  c #7C131A",
"#  c #75191E",
"$  c #7C1B1E",
"%  c #74141B",
"&  c #6E221F",
"*  c #7F231F",
"=  c #751D21",
"-  c #7B1D22",
";  c #7A1825",
":  c #5E2728",
">  c #672827",
",  c #732525",
"<  c #7B2225",
"1  c #7D2428",
"2  c #752B2B",
"3  c #792828",
"4  c #7D322D",
"5  c #6B3432",
"6  c #6A3C3C",
"7  c #663537",
"8  c #753533",
"9  c #723C3A",
"0  c #793733",
"q  c #722E31",
"w  c #7A413D",
"e  c #6C403F",
"r  c #643E40",
"t  c #6E4A48",
"y  c #744443",
"u  c #794844",
"i  c #7A5A4F",
"p  c #77534B",
"a  c #765952",
"s  c #6F5752",
"d  c #7D6258",
"f  c #831B1D",
"g  c #87191B",
"h  c #831E23",
"j  c #841F29",
"k  c #842323",
"l  c #8C2324",
"z  c #83252A",
"x  c #8B242A",
"c  c #852A2B",
"v  c #8B2B2C",
"b  c #8A2925",
"n  c #932C26",
"m  c #922C2B",
"M  c #942727",
"N  c #8C312C",
"B  c #95312C",
"V  c #9A332C",
"C  c #993427",
"Z  c #8C2D32",
"A  c #852931",
"S  c #932E33",
"D  c #8D3332",
"F  c #843931",
"G  c #8A3C35",
"H  c #873134",
"J  c #933434",
"K  c #9B3533",
"L  c #943A36",
"P  c #9B3B35",
"I  c #933638",
"U  c #963A39",
"Y  c #9C3B3A",
"T  c #99373A",
"R  c #A23C2C",
"E  c #A5352C",
"W  c #A33B34",
"Q  c #A33835",
"!  c #94291E",
"~  c #89433A",
"^  c #9D423C",
"/  c #99463B",
"(  c #AB462B",
")  c #A44233",
"_  c #AB4333",
"`  c #A4433C",
"'  c #AA453C",
"]  c #AB4B3C",
"[  c #A84A3A",
"{  c #B34C34",
"}  c #B94B38",
"|  c #B8553A",
" . c #B35032",
".. c #B6613F",
"X. c #C35A39",
"o. c #C9633D",
"O. c #D26D36",
"+. c #E1783F",
"@. c #874E44",
"#. c #9A4843",
"$. c #85574A",
"%. c #9A5245",
"&. c #855E53",
"*. c #A34C42",
"=. c #AB4C43",
"-. c #A54743",
";. c #B24D42",
":. c #BB4F42",
">. c #AE5B4B",
",. c #A85646",
"<. c #B55345",
"1. c #B55D4C",
"2. c #BA5847",
"3. c #B95D51",
"4. c #836156",
"5. c #84665A",
"6. c #8C6559",
"7. c #8A6B5D",
"8. c #88675A",
"9. c #996A5A",
"0. c #A86247",
"q. c #B96348",
"w. c #BC774C",
"e. c #A66756",
"r. c #B66252",
"t. c #BC6B53",
"y. c #B96652",
"u. c #BB7756",
"i. c #AF705D",
"p. c #8B6E61",
"a. c #8E7767",
"s. c #937564",
"d. c #957B68",
"f. c #A57764",
"g. c #B57965",
"h. c #C45B46",
"j. c #C36242",
"k. c #CC6C43",
"l. c #C86948",
"z. c #D26B44",
"x. c #CC724B",
"c. c #C6764D",
"v. c #D3754C",
"b. c #D27A4E",
"n. c #D8754A",
"m. c #C46D53",
"M. c #CB7D53",
"N. c #C47757",
"B. c #D47D51",
"V. c #D27650",
"C. c #E37643",
"Z. c #B5825C",
"A. c #9C816C",
"S. c #9E8164",
"D. c #9F8975",
"F. c #A9896B",
"G. c #B58C69",
"H. c #BB946D",
"J. c #AC8C75",
"K. c #A58B76",
"L. c #B98B72",
"P. c #AA947B",
"I. c #A89378",
"U. c #B59B7B",
"Y. c #BA9778",
"T. c #BAA17D",
"R. c #CB8555",
"E. c #C4845B",
"W. c #CB8759",
"Q. c #D78858",
"!. c #D7965E",
"~. c #E2915E",
"^. c #CB8D63",
"/. c #C98965",
"(. c #CC9A6C",
"). c #C79469",
"_. c #D49564",
"`. c #D69A66",
"'. c #D79768",
"]. c #C28C70",
"[. c #C69A78",
"{. c #D39069",
"}. c #E39762",
"|. c #D8A56B",
" X c #C9A579",
".X c #D3AB7A",
"XX c #D6A677",
"oX c #D7B27B",
"OX c #CEB073",
"+X c #E0AA75",
"@X c #E8B47D",
"#X c #9D9581",
"$X c #AB9A85",
"%X c #B39D84",
"&X c #B89981",
"*X c #B5A285",
"=X c #BDAC8C",
"-X c #B6A489",
";X c #BDB18E",
":X c #B6AB92",
">X c #B4B79F",
",X c #C79D81",
"<X c #CAA483",
"1X c #CCAC84",
"2X c #C7AC89",
"3X c #D4AA84",
"4X c #C9B38B",
"5X c #D4B383",
"6X c #DCB484",
"7X c #D9BB8A",
"8X c #D4B88B",
"9X c #C4B394",
"0X c #CAB996",
"qX c #D4BC94",
"wX c #D3BD9A",
"eX c #D6B792",
"rX c #C3AF93",
"tX c #E0B390",
"yX c #BBC0A8",
"uX c #CCC29B",
"iX c #DBC494",
"pX c #DCC39C",
"aX c #D6C59C",
"sX c #E3C18B",
"dX c #E6D59A",
"fX c #E3C892",
"gX c #C7C3A4",
"hX c #D7CCA8",
"jX c #DAD4AC",
"kX c #DCD8B3",
"lX c #D7C8B0",
"zX c #E4D5AB",
"xX c #E1D9B2",
"cX c #E4E0BF",
"vX c #EBE9C6",
/* pixels */
"pXeXG.P.-XU.U.T.<XrXlX9XT.U.U.rX9XG.G.U.%XU.Y.J.Y.qXpX2XF.Y.9X-XF.J.%X%X%XG.S.2X",
"l.l.k.(.XX}.!.!.R.7XkX5XQ.}.Q.{.Y.b.k.1X7XR.B.Q.B.B.B.M.B.c.J.Y.v.x..XaX.Xk.b.b.",
"P ` T ' =.,.=.2.l.W.qX'.q.1.M.] S Y h.tX_.j.] ;.' ' ] T T Y ' K T 2.R. XM.2.' ' ",
"T ^ Y Z Z Z Z T ' =.,Xm.<.#.r.^ T c ` 3X3.Q I Y J Z Z T T I <.Y J Y <.L.<.` D D ",
"M m 2 1 V m m x @ *.qX,.M m v x M m f ,Xi.Z l m v v m m m v l m m h ,. X*.f m m ",
"u 9 r t 0 0 0 y 8 I.jXD.5 9 8 0 8 6 8 &XgXD.G @.t 9 9 w t 9 2 0 y y $XhXK.8 9 y ",
"H.G. XH.P.$XK.H. X3X X[.[.G.%X:X%XH.0X7X6X.X;X0X[.G.G.[. X%X$X*X).H..XXX8XU.Z.H.",
"( | x. .(.hX^.o.b.o.o.X.v.z.XXaXXXX.(.N.O.+.g.e.| v.n.v.| (.zX(.( { ( ( ,.e. .| ",
"< v z % >.5X| m B B B J v V ..XX] ; n l m K k - D P B m n q.7X>.; v z 1 j - z 1 ",
"v J z - *.[.K - z z z v < - Y ].P v z v m < v J ^ ^ D v m [ <X^ x v c v v J v c ",
"$ $ $ O / <XL % % k B k @ @ / [./ @ + + # - # # b c N v f *.eX/ X . + $ $ $ h $ ",
"5 5 e 7 K.kXK.> y @.@.$.$.6 K.hXK.> 7 7 t i 6 6 @.@.&.u 9 $XcXP.: t y 5 5 6 6 5 ",
":X-XG.G.(.'.1X*X(.aXgX0X.X.X6X@X5X>X X|.oX8X2X|.=X:X9XoX5XsXsXsX7XsXsX4X;X). XrX",
"iX|.X.z.o.X.m./.z.oXkX_.z.Q.b.z.B.g.c.k.n.N.N.C.(.uX(.V.}.Q.Q.Q.}.!.~.'./.z.n.+X",
"1X| Z ;.;.T v J -.N.iXt.:.<.| ` D m Z Z S Q h.;.>.5Xm.#.y.1.t.1.1.l.-.` :.2.<.2.",
",XQ m K B S T T ` r.4X=.K K K L Z Y P J D J ^ K ,.,X=.K -.*.,.<.[ [ ^ Y ' h.' W ",
"2X/ g $   + m V M e.wX,.X     $ h h l f + + . X >.0X#.O f f m z : > > < h f @ #.",
"0X=Xf.7.F.J.J.K.8.-XhX%Xp 7.p.&.9.8.i 6.4.6.6.i *XhX%X&.6.6.$.p d a.d.p.i 4.6.*X",
"Q.6XiX!.zXvXzX|.`.`.!.`.W.W.iXgX*XW.W.4X).W.W.W.'.'.Q. X5X7XgXqX`.W.R..X=X_.`._.",
"C / ,.( u.wXr.R [ ) _ [ ) R y.<X%.! C G ) { C C C W C D ] m.wXt.C R C ^ r._ n C ",
"Z m m j ^ <XB m L L U J J D ] [.W x j h Y ` T Y J Q L N l ] eX] j 3 A x v Z A c ",
"k h h O %.0X~ g V *   & k f 0.eXy.g g f b n n n V N > + X ~ qX%.X o + + o % - % ",
"s i i s :XcX$Xt 8.$.&.s.7.p -XhX#X8.p.&.9.9.5.5.$.8.a.8.a -XjXP.t p p u &.d s a ",
" XuX0X X6X6X3X X.XhXvXzX7X XXX(.G.7X.XaXyX0X.X5XuX1X5X7X7XsX.XaX X).hXkXzX5X1X X",
"{ N.N.o.q.q.l.x.k.@XvX+Xo.X.| j.k.X.E <XOXw.R j.{.x.x.x.v.x.l./.j.| +XzX`.X.z.j.",
"Z z ` =.1 D -.^ =.m.qXt.x z A ] ' z z L.x._ - J V v I ^ =.P T ` Y Z ] (.] j ` Y ",
"T Z Z K Z L =.*.Y 1.qXr.z 1 D K J Z J L.<.E K J 1 o - T J J Z T ` Y ] ].` S J J ",
"= - = - = - c D k i.zXg.$ < z = # - # L.].%.# # , 9.@.% < = = = # # e.1X>.% < = ",
"s.s.s.d.7.&.4.7.s.=XkX9XA.A.d.s.d.8.i =XjX:X4.i 7.gX;X8.5.4.6.8.7.s.9XhX=X8.d s.",
"^.^.^.^.8XgX4XE./.^.W.3XqX`.aXkXqXE.^.E.W.^.).).^.w.N.^.u.1XhX1XE.^.'.[.2XE.Z.^.",
"m B B M E.dXR.M m P [ *.^ _ |.dX!.} _ m V } j.} W V m B M W.dXR.l W | [ L n V B ",
"Z T Z j >.3X] z Q Y U T L ^ t.<Xm.' Z D J Z ' ' H T I ^ c *.eX>.h I #.=.` I L c ",
"P v v x *.[.P m c z c v J K >.<X1.m < > v S < c ;.;.] =.W ,.wXr.m P ' ` ^ ] =.Y ",
"G 4 4 3 e.wX9.= > > , 2 , , f.wXf.+ > 7 2 3 : 5 P G G G c f.hXf.3 ~ #.G F ~ G G ",
"P.I.I.I.uXzX0XD.P.I.A.d.a.A.9XaX0XA.s.F.K.A.K.%XD.D.P.d.a.=XpX2XA.K.P.I.I.*XI.P.",
"jXiXE._.|.'._._.M.3XhX1Xc.M.Q.c.N.E.N.M.M.M.^.`.iXkX8Xw.c.].u.x.G.L.M.N.w.E.^.iX",
"iXR.m [ [ ] | | g 0.fXq.l { _ k k n R _ _ X.) R _.dXw.l { ) n V z v b k k b m M.",
"<X) z D ` P J D c *.eX^ h K m v P P 1 - v K v v r.eX^ j J z z c z v c z z c z V ",
"[.B M V K ] ] ' ' 1.wXq.v = < B ;.=.] ` K m V M ,.[.K E B 3 V K K K K K K V K K ",
"0X9.+ , > F F F 3 f.xXL.& 5 y w 4 2 4 F , , , + 9.aX9.+ > > 2 , , , , , , , # 9."
};
